<?xml version="1.0" encoding="UTF-8" standalone="no"?>
<!DOCTYPE svg PUBLIC "-//W3C//DTD SVG 1.1//EN" "http://www.w3.org/Graphics/SVG/1.1/DTD/svg11.dtd">
<svg width="100%" height="100%" viewBox="0 0 24 24" version="1.1" xmlns="http://www.w3.org/2000/svg" xmlns:xlink="http://www.w3.org/1999/xlink" xml:space="preserve" xmlns:serif="http://www.serif.com/" style="fill-rule:evenodd;clip-rule:evenodd;stroke-linecap:round;stroke-linejoin:round;">
    <path d="M11.144,21L5,21C3.896,21 3,20.104 3,19L3,5C3,3.896 3.896,3 5,3L19,3C20.104,3 21,3.896 21,5L21,15.955" style="fill:none;stroke:black;stroke-width:2px;"/>
    <path d="M7,3L7,21" style="fill:none;fill-rule:nonzero;stroke:black;stroke-width:2px;"/>
    <path d="M3,7.5L7,7.5" style="fill:none;fill-rule:nonzero;stroke:black;stroke-width:2px;"/>
    <path d="M3,12L21,12" style="fill:none;fill-rule:nonzero;stroke:black;stroke-width:2px;"/>
    <path d="M3,16.5L7,16.5" style="fill:none;fill-rule:nonzero;stroke:black;stroke-width:2px;"/>
    <path d="M17,3L17,12.856" style="fill:none;fill-rule:nonzero;stroke:black;stroke-width:2px;"/>
    <path d="M17,7.5L21,7.5" style="fill:none;fill-rule:nonzero;stroke:black;stroke-width:2px;"/>
    <path d="M14,19.5L17,16.5L20,19.5" style="fill:none;fill-rule:nonzero;stroke:black;stroke-width:2px;"/>
    <path d="M17,22L17,16.5" style="fill:none;fill-rule:nonzero;stroke:black;stroke-width:2px;"/>
</svg>
